# xmcd
#
# Track frame offsets:
# 150
# 21469
# 41032
# 61107
# 77329
# 96582
# 115027
# 133231
# 149008
# 163163
# 186065
# 206944
# 225315
# 242816
#
# Disc length: 3455 seconds
#
#
# Revision: 0
# Processed by: cddbd v1.5.1PL0 Copyright (c) Steve Scherf et al.
# Submitted via: FreeRIP 2.941 
#
DISCID=c90d7d0e
DTITLE=Various Artist - Movie Hits
DYEAR=1900
DGENRE=Soundtrack
TTITLE0=Chico buarque - Bye Bye Brasil
TTITLE1=Gilberto Gil - Esperando na Janela
TTITLE2=Baby Consuelo - Menino do Rio
TTITLE3=Cazuza - Um Trem Para As Estrelas
TTITLE4=Djavan - Tanta Saudade
TTITLE5=Milton Nascimento and Chico Buarque - O Que Será (À Flor da Pele)
TTITLE6=Jorge Benjor - Xica da Silva
TTITLE7=Barão Vermelho - Bete Balanço
TTITLE8=Ed Motta - Falso Milagre do Amor
TTITLE9=Chico Buarque and Telma Costa - Eu Te Amo
TTITLE10=Gal Costa - Índia
TTITLE11=Gal Costa and Tom Jobim - Tema de Amor de Gabriela
TTITLE12=Léo Jaime - Sete Vampiras
TTITLE13=Rádio Taxi - Garota Dourada
EXTD=
EXTT0=
EXTT1=
EXTT2=
EXTT3=
EXTT4=
EXTT5=
EXTT6=
EXTT7=
EXTT8=
EXTT9=
EXTT10=
EXTT11=
EXTT12=
EXTT13=
PLAYORDER=
